# xmcd
#
# Track frame offsets:
#	150
#	21262
#	38624
#	55536
#	72749
#	90794
#	109097
#	124884
#	138287
#	153971
#	168822
#	187727
#	202314
#	217852
#
# Disc length: 3096 seconds
#
# Revision: 1
# Processed by: cddbd v1.5.2PL0 Copyright (c) Steve Scherf et al.
# Submitted via: EasyCDDAExtractor 7.0.3.1
#
DISCID=b30c160e
DTITLE=Various Artist - Hitz 2008 Vol-2
DYEAR=2008
DGENRE=Country
TTITLE0=Alan Jackson - Small Town Southern Man
TTITLE1=Jewel - Stronger Woman
TTITLE2=Dierks Bentley - Trying To Stop Your Leaving
TTITLE3=Blake Shelton - Home
TTITLE4=Sara Evans - Some Things Never Change
TTITLE5=Reba McEntire and Kennt Chesney - Every Other Weekend
TTITLE6=Keith Anderson - I Still Miss You
TTITLE7=Sarah Johns - He Hates Me
TTITLE8=Clint Black - Long Cool Woman
TTITLE9=Brooks and Dunn - Cowboy Town
TTITLE10=Cross Canadian Ragweed - Cry Lonely
TTITLE11=Whiskey Falls - Falling Into You
TTITLE12=Gary Allan - Learning How To Bend
TTITLE13=Juliana Hough - That Song In My Head
EXTD=
EXTT0=
EXTT1=
EXTT2=
EXTT3=
EXTT4=
EXTT5=
EXTT6=
EXTT7=
EXTT8=
EXTT9=
EXTT10=
EXTT11=
EXTT12=
EXTT13=
PLAYORDER=
